<svg width="1920" height="274" viewBox="0 0 1920 274" fill="none" xmlns="http://www.w3.org/2000/svg">
<g clip-path="url(#clip0_73_699)">
<path d="M80.7765 14.7243L0 0L0 250H478L364.687 229.713C354.451 227.881 347 218.977 347 208.579C347 202.152 342.572 196.572 336.312 195.112L139.642 149.245C121.989 145.128 109.5 129.391 109.5 111.264V49.1569C109.5 32.2478 97.4115 17.7565 80.7765 14.7243Z" fill="#E0DFD4"/>
<path d="M964.5 250.5C467.438 250.5 392.5 234.5 392.5 234.5L404.5 262L1541 274V232C1541 232 1298 250.5 964.5 250.5Z" fill="#E0DFD4"/>
<path d="M1839.22 14.7243L1920 0V250H1442L1555.31 229.713C1565.55 227.881 1573 218.977 1573 208.579C1573 202.152 1577.43 196.572 1583.69 195.112L1780.36 149.245C1798.01 145.128 1810.5 129.391 1810.5 111.264V49.1569C1810.5 32.2478 1822.59 17.7565 1839.22 14.7243Z" fill="#E0DFD4"/>
<rect y="250" width="1920" height="24" fill="#E0DFD4"/>
</g>
<defs>
<clipPath id="clip0_73_699">
<rect width="1920" height="274" fill="white"/>
</clipPath>
</defs>
</svg>
