<svg width="814" height="674" viewBox="0 0 814 674" fill="none" xmlns="http://www.w3.org/2000/svg">
<g clip-path="url(#clip0_8_683)">
<path opacity="0.1" d="M487.367 596.367C321.798 761.936 53.358 761.936 -112.211 596.367C-277.78 430.798 -277.78 162.358 -112.211 -3.2109C53.358 -168.78 321.798 -168.78 487.367 -3.2109C652.936 162.358 652.936 430.798 487.367 596.367ZM-111.611 -2.61132C-276.849 162.627 -276.849 430.53 -111.611 595.768C53.6264 761.006 321.53 761.006 486.768 595.768C652.005 430.53 652.005 162.627 486.768 -2.61132C321.53 -167.849 53.6264 -167.849 -111.611 -2.61132Z" fill="#34393A"/>
<path d="M720.927 608.31C549.959 904.434 171.306 1005.89 -124.819 834.927C-420.944 663.959 -522.403 285.306 -351.436 -10.8189C-180.468 -306.944 198.185 -408.403 494.31 -237.436C790.434 -66.468 891.894 312.185 720.927 608.31ZM-243.127 51.7131C-379.559 288.021 -298.594 590.186 -62.2869 726.618C174.021 863.05 476.186 782.085 612.618 545.778C749.05 309.47 668.085 7.30512 431.778 -129.127C195.47 -265.559 -106.695 -184.594 -243.127 51.7131Z" fill="#D5D3C8"/>
</g>
<g clip-path="url(#clip1_8_683)">
<path d="M68.8611 635.913C67.1824 635.913 65.8328 637.269 65.8328 638.957C65.8328 640.644 67.1824 642 68.8611 642C70.5398 642 71.8894 640.644 71.8894 638.957C71.8894 637.269 70.5398 635.913 68.8611 635.913Z" fill="#353B3A"/>
<path d="M68.8611 616.429C67.1824 616.429 65.8328 617.785 65.8328 619.472C65.8328 621.159 67.1824 622.516 68.8611 622.516C70.5398 622.516 71.8894 621.159 71.8894 619.472C71.8894 617.785 70.5398 616.429 68.8611 616.429Z" fill="#353B3A"/>
<path d="M68.8611 596.944C67.1824 596.944 65.8328 598.301 65.8328 599.988C65.8328 601.675 67.1824 603.031 68.8611 603.031C70.5398 603.031 71.8894 601.675 71.8894 599.988C71.8894 598.301 70.5398 596.944 68.8611 596.944Z" fill="#353B3A"/>
<path d="M68.8611 577.46C67.1824 577.46 65.8328 578.816 65.8328 580.503C65.8328 582.191 67.1824 583.547 68.8611 583.547C70.5398 583.547 71.8894 582.191 71.8894 580.503C71.8894 578.816 70.5398 577.46 68.8611 577.46Z" fill="#353B3A"/>
<path d="M68.8611 557.976C67.1824 557.976 65.8328 559.332 65.8328 561.019C65.8328 562.706 67.1824 564.062 68.8611 564.062C70.5398 564.062 71.8894 562.706 71.8894 561.019C71.8894 559.332 70.5398 557.976 68.8611 557.976Z" fill="#353B3A"/>
<path d="M68.8611 538.491C67.1824 538.491 65.8328 539.847 65.8328 541.534C65.8328 543.221 67.1824 544.578 68.8611 544.578C70.5398 544.578 71.8894 543.221 71.8894 541.534C71.8894 539.847 70.5398 538.491 68.8611 538.491Z" fill="#353B3A"/>
<path d="M68.8611 519.006C67.1824 519.006 65.8328 520.363 65.8328 522.05C65.8328 523.737 67.1824 525.093 68.8611 525.093C70.5398 525.093 71.8894 523.737 71.8894 522.05C71.8894 520.363 70.5398 519.006 68.8611 519.006Z" fill="#353B3A"/>
<path d="M68.8611 499.522C67.1824 499.522 65.8328 500.878 65.8328 502.565C65.8328 504.253 67.1824 505.609 68.8611 505.609C70.5398 505.609 71.8894 504.253 71.8894 502.565C71.8894 500.878 70.5398 499.522 68.8611 499.522Z" fill="#353B3A"/>
<path d="M87.1626 635.913C85.4839 635.913 84.1343 637.269 84.1343 638.957C84.1343 640.644 85.4839 642 87.1626 642C88.8414 642 90.1909 640.644 90.1909 638.957C90.1909 637.269 88.8414 635.913 87.1626 635.913Z" fill="#353B3A"/>
<path d="M87.1626 616.429C85.4839 616.429 84.1343 617.785 84.1343 619.472C84.1343 621.159 85.4839 622.516 87.1626 622.516C88.8414 622.516 90.1909 621.159 90.1909 619.472C90.1909 617.785 88.8414 616.429 87.1626 616.429Z" fill="#353B3A"/>
<path d="M87.1626 596.944C85.4839 596.944 84.1343 598.301 84.1343 599.988C84.1343 601.675 85.4839 603.031 87.1626 603.031C88.8414 603.031 90.1909 601.675 90.1909 599.988C90.1909 598.301 88.8414 596.944 87.1626 596.944Z" fill="#353B3A"/>
<path d="M87.1626 577.46C85.4839 577.46 84.1343 578.816 84.1343 580.503C84.1343 582.191 85.4839 583.547 87.1626 583.547C88.8414 583.547 90.1909 582.191 90.1909 580.503C90.1909 578.816 88.8414 577.46 87.1626 577.46Z" fill="#353B3A"/>
<path d="M87.1626 557.976C85.4839 557.976 84.1343 559.332 84.1343 561.019C84.1343 562.706 85.4839 564.062 87.1626 564.062C88.8414 564.062 90.1909 562.706 90.1909 561.019C90.1909 559.332 88.8414 557.976 87.1626 557.976Z" fill="#353B3A"/>
<path d="M87.1626 538.491C85.4839 538.491 84.1343 539.847 84.1343 541.534C84.1343 543.221 85.4839 544.578 87.1626 544.578C88.8414 544.578 90.1909 543.221 90.1909 541.534C90.1909 539.847 88.8414 538.491 87.1626 538.491Z" fill="#353B3A"/>
<path d="M87.1626 519.006C85.4839 519.006 84.1343 520.363 84.1343 522.05C84.1343 523.737 85.4839 525.093 87.1626 525.093C88.8414 525.093 90.1909 523.737 90.1909 522.05C90.1909 520.363 88.8414 519.006 87.1626 519.006Z" fill="#353B3A"/>
<path d="M87.1626 499.522C85.4839 499.522 84.1343 500.878 84.1343 502.565C84.1343 504.253 85.4839 505.609 87.1626 505.609C88.8414 505.609 90.1909 504.253 90.1909 502.565C90.1909 500.878 88.8414 499.522 87.1626 499.522Z" fill="#353B3A"/>
<path d="M105.464 635.913C103.785 635.913 102.436 637.269 102.436 638.957C102.436 640.644 103.785 642 105.464 642C107.143 642 108.492 640.644 108.492 638.957C108.492 637.269 107.143 635.913 105.464 635.913Z" fill="#353B3A"/>
<path d="M105.464 616.429C103.785 616.429 102.436 617.785 102.436 619.472C102.436 621.159 103.785 622.516 105.464 622.516C107.143 622.516 108.492 621.159 108.492 619.472C108.492 617.785 107.143 616.429 105.464 616.429Z" fill="#353B3A"/>
<path d="M105.464 596.944C103.785 596.944 102.436 598.301 102.436 599.988C102.436 601.675 103.785 603.031 105.464 603.031C107.143 603.031 108.492 601.675 108.492 599.988C108.492 598.301 107.143 596.944 105.464 596.944Z" fill="#353B3A"/>
<path d="M105.464 577.46C103.785 577.46 102.436 578.816 102.436 580.503C102.436 582.191 103.785 583.547 105.464 583.547C107.143 583.547 108.492 582.191 108.492 580.503C108.492 578.816 107.143 577.46 105.464 577.46Z" fill="#353B3A"/>
<path d="M105.464 557.976C103.785 557.976 102.436 559.332 102.436 561.019C102.436 562.706 103.785 564.062 105.464 564.062C107.143 564.062 108.492 562.706 108.492 561.019C108.492 559.332 107.143 557.976 105.464 557.976Z" fill="#353B3A"/>
<path d="M105.464 538.491C103.785 538.491 102.436 539.847 102.436 541.534C102.436 543.221 103.785 544.578 105.464 544.578C107.143 544.578 108.492 543.221 108.492 541.534C108.492 539.847 107.143 538.491 105.464 538.491Z" fill="#353B3A"/>
<path d="M105.464 519.006C103.785 519.006 102.436 520.363 102.436 522.05C102.436 523.737 103.785 525.093 105.464 525.093C107.143 525.093 108.492 523.737 108.492 522.05C108.492 520.363 107.143 519.006 105.464 519.006Z" fill="#353B3A"/>
<path d="M105.464 499.522C103.785 499.522 102.436 500.878 102.436 502.565C102.436 504.253 103.785 505.609 105.464 505.609C107.143 505.609 108.492 504.253 108.492 502.565C108.492 500.878 107.143 499.522 105.464 499.522Z" fill="#353B3A"/>
<path d="M123.766 635.913C122.087 635.913 120.737 637.269 120.737 638.957C120.737 640.644 122.087 642 123.766 642C125.444 642 126.794 640.644 126.794 638.957C126.794 637.269 125.444 635.913 123.766 635.913Z" fill="#353B3A"/>
<path d="M123.766 616.429C122.087 616.429 120.737 617.785 120.737 619.472C120.737 621.159 122.087 622.516 123.766 622.516C125.444 622.516 126.794 621.159 126.794 619.472C126.794 617.785 125.444 616.429 123.766 616.429Z" fill="#353B3A"/>
<path d="M123.766 596.944C122.087 596.944 120.737 598.301 120.737 599.988C120.737 601.675 122.087 603.031 123.766 603.031C125.444 603.031 126.794 601.675 126.794 599.988C126.794 598.301 125.444 596.944 123.766 596.944Z" fill="#353B3A"/>
<path d="M123.766 577.46C122.087 577.46 120.737 578.816 120.737 580.503C120.737 582.191 122.087 583.547 123.766 583.547C125.444 583.547 126.794 582.191 126.794 580.503C126.794 578.816 125.444 577.46 123.766 577.46Z" fill="#353B3A"/>
<path d="M123.766 557.976C122.087 557.976 120.737 559.332 120.737 561.019C120.737 562.706 122.087 564.062 123.766 564.062C125.444 564.062 126.794 562.706 126.794 561.019C126.794 559.332 125.444 557.976 123.766 557.976Z" fill="#353B3A"/>
<path d="M123.766 538.491C122.087 538.491 120.737 539.847 120.737 541.534C120.737 543.221 122.087 544.578 123.766 544.578C125.444 544.578 126.794 543.221 126.794 541.534C126.794 539.847 125.444 538.491 123.766 538.491Z" fill="#353B3A"/>
<path d="M123.766 519.006C122.087 519.006 120.737 520.363 120.737 522.05C120.737 523.737 122.087 525.093 123.766 525.093C125.444 525.093 126.794 523.737 126.794 522.05C126.794 520.363 125.444 519.006 123.766 519.006Z" fill="#353B3A"/>
<path d="M123.766 499.522C122.087 499.522 120.737 500.878 120.737 502.565C120.737 504.253 122.087 505.609 123.766 505.609C125.444 505.609 126.794 504.253 126.794 502.565C126.794 500.878 125.444 499.522 123.766 499.522Z" fill="#353B3A"/>
<path d="M142.067 635.913C140.388 635.913 139.039 637.269 139.039 638.957C139.039 640.644 140.388 642 142.067 642C143.746 642 145.095 640.644 145.095 638.957C145.095 637.269 143.746 635.913 142.067 635.913Z" fill="#353B3A"/>
<path d="M142.067 616.429C140.388 616.429 139.039 617.785 139.039 619.472C139.039 621.159 140.388 622.516 142.067 622.516C143.746 622.516 145.095 621.159 145.095 619.472C145.095 617.785 143.746 616.429 142.067 616.429Z" fill="#353B3A"/>
<path d="M142.067 596.944C140.388 596.944 139.039 598.301 139.039 599.988C139.039 601.675 140.388 603.031 142.067 603.031C143.746 603.031 145.095 601.675 145.095 599.988C145.095 598.301 143.746 596.944 142.067 596.944Z" fill="#353B3A"/>
<path d="M142.067 577.46C140.388 577.46 139.039 578.816 139.039 580.503C139.039 582.191 140.388 583.547 142.067 583.547C143.746 583.547 145.095 582.191 145.095 580.503C145.095 578.816 143.746 577.46 142.067 577.46Z" fill="#353B3A"/>
<path d="M142.067 557.976C140.388 557.976 139.039 559.332 139.039 561.019C139.039 562.706 140.388 564.062 142.067 564.062C143.746 564.062 145.095 562.706 145.095 561.019C145.095 559.332 143.746 557.976 142.067 557.976Z" fill="#353B3A"/>
<path d="M142.067 538.491C140.388 538.491 139.039 539.847 139.039 541.534C139.039 543.221 140.388 544.578 142.067 544.578C143.746 544.578 145.095 543.221 145.095 541.534C145.095 539.847 143.746 538.491 142.067 538.491Z" fill="#353B3A"/>
<path d="M142.067 519.006C140.388 519.006 139.039 520.363 139.039 522.05C139.039 523.737 140.388 525.093 142.067 525.093C143.746 525.093 145.095 523.737 145.095 522.05C145.095 520.363 143.746 519.006 142.067 519.006Z" fill="#353B3A"/>
<path d="M142.067 499.522C140.388 499.522 139.039 500.878 139.039 502.565C139.039 504.253 140.388 505.609 142.067 505.609C143.746 505.609 145.095 504.253 145.095 502.565C145.095 500.878 143.746 499.522 142.067 499.522Z" fill="#353B3A"/>
<path d="M160.369 635.913C158.69 635.913 157.34 637.269 157.34 638.957C157.34 640.644 158.69 642 160.369 642C162.047 642 163.397 640.644 163.397 638.957C163.397 637.269 162.047 635.913 160.369 635.913Z" fill="#353B3A"/>
<path d="M160.369 616.429C158.69 616.429 157.34 617.785 157.34 619.472C157.34 621.159 158.69 622.516 160.369 622.516C162.047 622.516 163.397 621.159 163.397 619.472C163.397 617.785 162.047 616.429 160.369 616.429Z" fill="#353B3A"/>
<path d="M160.369 596.944C158.69 596.944 157.34 598.301 157.34 599.988C157.34 601.675 158.69 603.031 160.369 603.031C162.047 603.031 163.397 601.675 163.397 599.988C163.397 598.301 162.047 596.944 160.369 596.944Z" fill="#353B3A"/>
<path d="M160.369 577.46C158.69 577.46 157.34 578.816 157.34 580.503C157.34 582.191 158.69 583.547 160.369 583.547C162.047 583.547 163.397 582.191 163.397 580.503C163.397 578.816 162.047 577.46 160.369 577.46Z" fill="#353B3A"/>
<path d="M160.369 557.976C158.69 557.976 157.34 559.332 157.34 561.019C157.34 562.706 158.69 564.062 160.369 564.062C162.047 564.062 163.397 562.706 163.397 561.019C163.397 559.332 162.047 557.976 160.369 557.976Z" fill="#353B3A"/>
<path d="M160.369 538.491C158.69 538.491 157.34 539.847 157.34 541.534C157.34 543.221 158.69 544.578 160.369 544.578C162.047 544.578 163.397 543.221 163.397 541.534C163.397 539.847 162.047 538.491 160.369 538.491Z" fill="#353B3A"/>
<path d="M160.369 519.006C158.69 519.006 157.34 520.363 157.34 522.05C157.34 523.737 158.69 525.093 160.369 525.093C162.047 525.093 163.397 523.737 163.397 522.05C163.397 520.363 162.047 519.006 160.369 519.006Z" fill="#353B3A"/>
<path d="M160.369 499.522C158.69 499.522 157.34 500.878 157.34 502.565C157.34 504.253 158.69 505.609 160.369 505.609C162.047 505.609 163.397 504.253 163.397 502.565C163.397 500.878 162.047 499.522 160.369 499.522Z" fill="#353B3A"/>
<path d="M178.67 635.913C176.991 635.913 175.642 637.269 175.642 638.957C175.642 640.644 176.991 642 178.67 642C180.349 642 181.698 640.644 181.698 638.957C181.698 637.269 180.349 635.913 178.67 635.913Z" fill="#353B3A"/>
<path d="M178.67 616.429C176.991 616.429 175.642 617.785 175.642 619.472C175.642 621.159 176.991 622.516 178.67 622.516C180.349 622.516 181.698 621.159 181.698 619.472C181.698 617.785 180.349 616.429 178.67 616.429Z" fill="#353B3A"/>
<path d="M178.67 596.944C176.991 596.944 175.642 598.301 175.642 599.988C175.642 601.675 176.991 603.031 178.67 603.031C180.349 603.031 181.698 601.675 181.698 599.988C181.698 598.301 180.349 596.944 178.67 596.944Z" fill="#353B3A"/>
<path d="M178.67 577.46C176.991 577.46 175.642 578.816 175.642 580.503C175.642 582.191 176.991 583.547 178.67 583.547C180.349 583.547 181.698 582.191 181.698 580.503C181.698 578.816 180.349 577.46 178.67 577.46Z" fill="#353B3A"/>
<path d="M178.67 557.976C176.991 557.976 175.642 559.332 175.642 561.019C175.642 562.706 176.991 564.062 178.67 564.062C180.349 564.062 181.698 562.706 181.698 561.019C181.698 559.332 180.349 557.976 178.67 557.976Z" fill="#353B3A"/>
<path d="M178.67 538.491C176.991 538.491 175.642 539.847 175.642 541.534C175.642 543.221 176.991 544.578 178.67 544.578C180.349 544.578 181.698 543.221 181.698 541.534C181.698 539.847 180.349 538.491 178.67 538.491Z" fill="#353B3A"/>
<path d="M178.67 519.006C176.991 519.006 175.642 520.363 175.642 522.05C175.642 523.737 176.991 525.093 178.67 525.093C180.349 525.093 181.698 523.737 181.698 522.05C181.698 520.363 180.349 519.006 178.67 519.006Z" fill="#353B3A"/>
<path d="M178.67 499.522C176.991 499.522 175.642 500.878 175.642 502.565C175.642 504.253 176.991 505.609 178.67 505.609C180.349 505.609 181.698 504.253 181.698 502.565C181.698 500.878 180.349 499.522 178.67 499.522Z" fill="#353B3A"/>
<path d="M196.972 635.913C195.293 635.913 193.943 637.269 193.943 638.957C193.943 640.644 195.293 642 196.972 642C198.65 642 200 640.644 200 638.957C200 637.269 198.65 635.913 196.972 635.913Z" fill="#353B3A"/>
<path d="M196.972 616.429C195.293 616.429 193.943 617.785 193.943 619.472C193.943 621.159 195.293 622.516 196.972 622.516C198.65 622.516 200 621.159 200 619.472C200 617.785 198.65 616.429 196.972 616.429Z" fill="#353B3A"/>
<path d="M196.972 596.944C195.293 596.944 193.943 598.301 193.943 599.988C193.943 601.675 195.293 603.031 196.972 603.031C198.65 603.031 200 601.675 200 599.988C200 598.301 198.65 596.944 196.972 596.944Z" fill="#353B3A"/>
<path d="M196.972 577.46C195.293 577.46 193.943 578.816 193.943 580.503C193.943 582.191 195.293 583.547 196.972 583.547C198.65 583.547 200 582.191 200 580.503C200 578.816 198.65 577.46 196.972 577.46Z" fill="#353B3A"/>
<path d="M196.972 557.976C195.293 557.976 193.943 559.332 193.943 561.019C193.943 562.706 195.293 564.062 196.972 564.062C198.65 564.062 200 562.706 200 561.019C200 559.332 198.65 557.976 196.972 557.976Z" fill="#353B3A"/>
<path d="M196.972 538.491C195.293 538.491 193.943 539.847 193.943 541.534C193.943 543.221 195.293 544.578 196.972 544.578C198.65 544.578 200 543.221 200 541.534C200 539.847 198.65 538.491 196.972 538.491Z" fill="#353B3A"/>
<path d="M196.972 519.006C195.293 519.006 193.943 520.363 193.943 522.05C193.943 523.737 195.293 525.093 196.972 525.093C198.65 525.093 200 523.737 200 522.05C200 520.363 198.65 519.006 196.972 519.006Z" fill="#353B3A"/>
<path d="M196.972 499.522C195.293 499.522 193.943 500.878 193.943 502.565C193.943 504.253 195.293 505.609 196.972 505.609C198.65 505.609 200 504.253 200 502.565C200 500.878 198.65 499.522 196.972 499.522Z" fill="#353B3A"/>
<path d="M136.076 568.363L136.076 443.881C136.076 440.904 133.674 438.489 130.711 438.489L6.84664 438.489C3.88417 438.489 1.48128 440.904 1.48128 443.881L1.48128 568.363C1.48128 571.34 3.88416 573.755 6.84664 573.755L130.711 573.755C133.674 573.755 136.076 571.34 136.076 568.363Z" stroke="#4E5552" stroke-width="0.89" stroke-miterlimit="10"/>
</g>
<defs>
<clipPath id="clip0_8_683">
<rect width="440" height="674" fill="white" transform="translate(374)"/>
</clipPath>
<clipPath id="clip1_8_683">
<rect width="205" height="200" fill="white" transform="matrix(1.19249e-08 -1 -1 -1.19249e-08 200 642)"/>
</clipPath>
</defs>
</svg>
