<svg width="170" height="45" viewBox="0 0 170 45" fill="none" xmlns="http://www.w3.org/2000/svg">
<path d="M6.36648 26H0.613636L7.09517 6.36364H14.3821L20.8636 26H15.1108L10.8153 11.7713H10.6619L6.36648 26ZM5.29261 18.2528H16.108V22.2415H5.29261V18.2528ZM33.1044 10.6591V6.36364H50.1712V10.6591H44.2649V26H39.0107V10.6591H33.1044ZM65.0056 10.6591V6.36364H82.0723V10.6591H76.1661V26H70.9118V10.6591H65.0056ZM102.775 6.36364V26H97.4436V6.36364H102.775ZM118.666 26V6.36364H123.997V21.7045H131.936V26H118.666ZM152.557 26H146.804L153.285 6.36364H160.572L167.054 26H161.301L157.006 11.7713H156.852L152.557 26ZM151.483 18.2528H162.298V22.2415H151.483V18.2528Z" fill="white"/>
<path d="M6.36648 26H0.613636L7.09517 6.36364H14.3821L20.8636 26H15.1108L10.8153 11.7713H10.6619L6.36648 26ZM5.29261 18.2528H16.108V22.2415H5.29261V18.2528ZM33.1044 10.6591V6.36364H50.1712V10.6591H44.2649V26H39.0107V10.6591H33.1044ZM65.0056 10.6591V6.36364H82.0723V10.6591H76.1661V26H70.9118V10.6591H65.0056ZM102.775 6.36364V26H97.4436V6.36364H102.775ZM118.666 26V6.36364H123.997V21.7045H131.936V26H118.666ZM152.557 26H146.804L153.285 6.36364H160.572L167.054 26H161.301L157.006 11.7713H156.852L152.557 26ZM151.483 18.2528H162.298V22.2415H151.483V18.2528Z" fill="url(#paint0_linear_73_739)" fill-opacity="0.3"/>
<path d="M1.47727 42V32.5455H1.77273V36.7188H1.80966C1.93277 36.3248 2.11127 35.9847 2.34517 35.6985C2.57907 35.4092 2.85452 35.1876 3.17152 35.0337C3.48852 34.8768 3.83475 34.7983 4.21023 34.7983C4.7642 34.7983 5.24586 34.9599 5.65518 35.283C6.06451 35.6062 6.38151 36.0447 6.60618 36.5987C6.83085 37.1527 6.94318 37.7775 6.94318 38.473C6.94318 39.1716 6.83085 39.7979 6.60618 40.3519C6.38459 40.9059 6.06913 41.3445 5.6598 41.6676C5.25355 41.9877 4.77036 42.1477 4.21023 42.1477C3.83168 42.1477 3.4839 42.0692 3.1669 41.9123C2.85298 41.7553 2.58061 41.5337 2.34979 41.2475C2.11896 40.9582 1.93892 40.6181 1.80966 40.2273H1.77273V42H1.47727ZM1.77273 38.473C1.77273 39.1132 1.87121 39.6887 2.06818 40.1996C2.26515 40.7074 2.54522 41.1106 2.90838 41.4091C3.27462 41.7045 3.70857 41.8523 4.21023 41.8523C4.71188 41.8523 5.14429 41.7045 5.50746 41.4091C5.8737 41.1106 6.1553 40.7074 6.35227 40.1996C6.54924 39.6887 6.64773 39.1132 6.64773 38.473C6.64773 37.8329 6.5477 37.2589 6.34766 36.7511C6.15069 36.2402 5.86908 35.837 5.50284 35.5415C5.13968 35.243 4.70881 35.0938 4.21023 35.0938C3.71165 35.0938 3.27924 35.243 2.913 35.5415C2.54983 35.837 2.26823 36.2402 2.06818 36.7511C1.87121 37.2589 1.77273 37.8329 1.77273 38.473ZM17.6348 39.6733V34.9091H17.9302V42H17.6348V40.8736H17.5978C17.4316 41.2429 17.1577 41.5384 16.7761 41.7599C16.3975 41.9815 15.9636 42.0923 15.4742 42.0923C15.0003 42.0923 14.5817 41.9892 14.2186 41.783C13.8554 41.5768 13.5707 41.2921 13.3645 40.929C13.1583 40.5658 13.0552 40.1473 13.0552 39.6733V34.9091H13.3507V39.6733C13.3507 40.3011 13.5476 40.812 13.9416 41.206C14.3355 41.5999 14.8464 41.7969 15.4742 41.7969C15.8928 41.7969 16.2637 41.7061 16.5868 41.5245C16.9131 41.3429 17.1685 41.0921 17.3532 40.772C17.5409 40.4519 17.6348 40.0857 17.6348 39.6733ZM28.721 36.4048L28.4256 36.4787C28.3302 36.1709 28.1963 35.9155 28.024 35.7124C27.8547 35.5062 27.6469 35.3523 27.4007 35.2507C27.1545 35.1461 26.8683 35.0938 26.5421 35.0938C25.9758 35.0938 25.5172 35.2384 25.1664 35.5277C24.8155 35.8139 24.6401 36.1925 24.6401 36.6634C24.6401 37.0357 24.7586 37.3481 24.9955 37.6005C25.2356 37.8529 25.5972 38.0391 26.0804 38.1591L27.1884 38.4361C27.7085 38.5653 28.1024 38.7839 28.3702 39.0916C28.641 39.3994 28.7764 39.7718 28.7764 40.2088C28.7764 40.5935 28.6749 40.9321 28.4718 41.2244C28.2717 41.5168 27.9947 41.7446 27.6408 41.9077C27.2869 42.0677 26.8775 42.1477 26.4128 42.1477C25.7819 42.1477 25.2664 41.9938 24.8663 41.6861C24.4662 41.3783 24.2061 40.9413 24.0861 40.375L24.3816 40.3011C24.4862 40.8028 24.7093 41.1875 25.0509 41.4553C25.3956 41.7199 25.8496 41.8523 26.4128 41.8523C27.0283 41.8523 27.5269 41.7015 27.9085 41.3999C28.2902 41.0982 28.481 40.7012 28.481 40.2088C28.481 39.8426 28.3671 39.5333 28.1394 39.2809C27.9116 39.0285 27.57 38.8454 27.1145 38.7315L26.0066 38.4545C25.4618 38.3191 25.0479 38.0975 24.7647 37.7898C24.4847 37.482 24.3446 37.1065 24.3446 36.6634C24.3446 36.291 24.437 35.9663 24.6216 35.6893C24.8094 35.4092 25.0679 35.1907 25.3972 35.0337C25.7296 34.8768 26.1112 34.7983 26.5421 34.7983C27.0899 34.7983 27.5469 34.9337 27.9132 35.2045C28.2794 35.4723 28.5487 35.8724 28.721 36.4048ZM34.9519 42V34.9091H35.2474V42H34.9519ZM35.0997 33.6165C35.0197 33.6165 34.9504 33.5872 34.8919 33.5288C34.8335 33.4703 34.8042 33.401 34.8042 33.321C34.8042 33.241 34.8335 33.1718 34.8919 33.1133C34.9504 33.0548 35.0197 33.0256 35.0997 33.0256C35.1797 33.0256 35.2489 33.0548 35.3074 33.1133C35.3659 33.1718 35.3951 33.241 35.3951 33.321C35.3951 33.401 35.3659 33.4703 35.3074 33.5288C35.2489 33.5872 35.1797 33.6165 35.0997 33.6165ZM42.1223 37.2358V42H41.8269V34.9091H42.1223V36.0355H42.1592C42.3254 35.6662 42.5978 35.3707 42.9764 35.1491C43.358 34.9276 43.7935 34.8168 44.2828 34.8168C44.7568 34.8168 45.1753 34.9199 45.5385 35.1261C45.9017 35.3323 46.1863 35.617 46.3926 35.9801C46.5988 36.3433 46.7019 36.7618 46.7019 37.2358V42H46.4064V37.2358C46.4064 36.608 46.2094 36.0971 45.8155 35.7031C45.4216 35.3092 44.9107 35.1122 44.2828 35.1122C43.8643 35.1122 43.4919 35.203 43.1656 35.3846C42.8425 35.5662 42.587 35.817 42.3993 36.1371C42.2146 36.4571 42.1223 36.8234 42.1223 37.2358ZM55.9046 42.1477C55.286 42.1477 54.7443 41.9862 54.2796 41.663C53.818 41.3398 53.4594 40.9013 53.204 40.3473C52.9485 39.7933 52.8208 39.1686 52.8208 38.473C52.8208 37.7775 52.9485 37.1527 53.204 36.5987C53.4625 36.0447 53.8134 35.6062 54.2565 35.283C54.6997 34.9599 55.1998 34.7983 55.7569 34.7983C56.1693 34.7983 56.5509 34.886 56.9018 35.0614C57.2557 35.2369 57.5635 35.48 57.8251 35.7908C58.0867 36.1017 58.2898 36.4602 58.4344 36.8665C58.5822 37.2696 58.656 37.7005 58.656 38.1591V38.4545H52.9685V38.1591H58.3606C58.3606 37.5897 58.2436 37.0742 58.0097 36.6126C57.7758 36.1478 57.4619 35.7785 57.068 35.5046C56.674 35.2307 56.237 35.0938 55.7569 35.0938C55.2706 35.0938 54.8305 35.2384 54.4366 35.5277C54.0426 35.817 53.7272 36.2109 53.4902 36.7095C53.2532 37.2081 53.1286 37.7713 53.1163 38.3991V38.4361C53.1163 39.0547 53.224 39.6241 53.4394 40.1442C53.6579 40.6612 53.9749 41.0752 54.3904 41.386C54.8059 41.6969 55.3106 41.8523 55.9046 41.8523C56.3416 41.8523 56.7079 41.7753 57.0033 41.6214C57.3019 41.4676 57.5404 41.2906 57.7189 41.0906C57.9005 40.8905 58.0344 40.7197 58.1205 40.5781L58.3606 40.7443C58.2559 40.9228 58.099 41.1213 57.8897 41.3398C57.6804 41.5584 57.4127 41.7476 57.0864 41.9077C56.7602 42.0677 56.3663 42.1477 55.9046 42.1477ZM69.0256 36.4048L68.7302 36.4787C68.6348 36.1709 68.5009 35.9155 68.3285 35.7124C68.1593 35.5062 67.9515 35.3523 67.7053 35.2507C67.4591 35.1461 67.1729 35.0938 66.8466 35.0938C66.2803 35.0938 65.8218 35.2384 65.4709 35.5277C65.1201 35.8139 64.9446 36.1925 64.9446 36.6634C64.9446 37.0357 65.0631 37.3481 65.3001 37.6005C65.5402 37.8529 65.9018 38.0391 66.385 38.1591L67.4929 38.4361C68.0131 38.5653 68.407 38.7839 68.6748 39.0916C68.9456 39.3994 69.081 39.7718 69.081 40.2088C69.081 40.5935 68.9795 40.9321 68.7763 41.2244C68.5763 41.5168 68.2993 41.7446 67.9454 41.9077C67.5914 42.0677 67.1821 42.1477 66.7174 42.1477C66.0865 42.1477 65.571 41.9938 65.1709 41.6861C64.7708 41.3783 64.5107 40.9413 64.3907 40.375L64.6861 40.3011C64.7908 40.8028 65.0139 41.1875 65.3555 41.4553C65.7002 41.7199 66.1542 41.8523 66.7174 41.8523C67.3329 41.8523 67.8315 41.7015 68.2131 41.3999C68.5947 41.0982 68.7856 40.7012 68.7856 40.2088C68.7856 39.8426 68.6717 39.5333 68.4439 39.2809C68.2162 39.0285 67.8746 38.8454 67.4191 38.7315L66.3111 38.4545C65.7664 38.3191 65.3524 38.0975 65.0693 37.7898C64.7892 37.482 64.6492 37.1065 64.6492 36.6634C64.6492 36.291 64.7415 35.9663 64.9262 35.6893C65.1139 35.4092 65.3724 35.1907 65.7018 35.0337C66.0341 34.8768 66.4158 34.7983 66.8466 34.7983C67.3945 34.7983 67.8515 34.9337 68.2177 35.2045C68.584 35.4723 68.8533 35.8724 69.0256 36.4048ZM79.4667 36.4048L79.1713 36.4787C79.0759 36.1709 78.942 35.9155 78.7697 35.7124C78.6004 35.5062 78.3926 35.3523 78.1464 35.2507C77.9002 35.1461 77.614 35.0938 77.2878 35.0938C76.7215 35.0938 76.2629 35.2384 75.9121 35.5277C75.5612 35.8139 75.3858 36.1925 75.3858 36.6634C75.3858 37.0357 75.5043 37.3481 75.7412 37.6005C75.9813 37.8529 76.3429 38.0391 76.8261 38.1591L77.9341 38.4361C78.4542 38.5653 78.8481 38.7839 79.1159 39.0916C79.3867 39.3994 79.5221 39.7718 79.5221 40.2088C79.5221 40.5935 79.4206 40.9321 79.2175 41.2244C79.0174 41.5168 78.7404 41.7446 78.3865 41.9077C78.0326 42.0677 77.6232 42.1477 77.1585 42.1477C76.5276 42.1477 76.0121 41.9938 75.612 41.6861C75.2119 41.3783 74.9518 40.9413 74.8318 40.375L75.1273 40.3011C75.2319 40.8028 75.455 41.1875 75.7966 41.4553C76.1413 41.7199 76.5953 41.8523 77.1585 41.8523C77.774 41.8523 78.2726 41.7015 78.6542 41.3999C79.0359 41.0982 79.2267 40.7012 79.2267 40.2088C79.2267 39.8426 79.1128 39.5333 78.8851 39.2809C78.6573 39.0285 78.3157 38.8454 77.8602 38.7315L76.7523 38.4545C76.2075 38.3191 75.7936 38.0975 75.5104 37.7898C75.2304 37.482 75.0903 37.1065 75.0903 36.6634C75.0903 36.291 75.1827 35.9663 75.3673 35.6893C75.5551 35.4092 75.8136 35.1907 76.1429 35.0337C76.4753 34.8768 76.8569 34.7983 77.2878 34.7983C77.8356 34.7983 78.2926 34.9337 78.6589 35.2045C79.0251 35.4723 79.2944 35.8724 79.4667 36.4048ZM95.1197 42.1477C94.7319 42.1477 94.3734 42.0677 94.0441 41.9077C93.7178 41.7476 93.4547 41.5137 93.2546 41.206C93.0577 40.8982 92.9592 40.5227 92.9592 40.0795C92.9592 39.8395 92.9977 39.6148 93.0746 39.4055C93.1515 39.1932 93.287 39.0008 93.4809 38.8285C93.6747 38.6561 93.9456 38.5084 94.2934 38.3853C94.6442 38.2622 95.092 38.1683 95.6367 38.1037C95.963 38.0668 96.2707 38.0237 96.56 37.9744C96.8493 37.9252 97.0848 37.8513 97.2664 37.7528C97.4479 37.6544 97.5387 37.5128 97.5387 37.3281V36.9034C97.5387 36.3587 97.3556 35.9216 96.9894 35.5923C96.6231 35.2599 96.1353 35.0938 95.526 35.0938C95.0274 35.0938 94.5919 35.2045 94.2195 35.4261C93.8471 35.6446 93.587 35.9524 93.4393 36.3494L93.1623 36.2386C93.2731 35.9432 93.4439 35.6877 93.6747 35.4723C93.9056 35.2569 94.1795 35.0907 94.4965 34.9737C94.8135 34.8568 95.1566 34.7983 95.526 34.7983C95.886 34.7983 96.2077 34.8522 96.4908 34.9599C96.777 35.0645 97.0202 35.2122 97.2202 35.4031C97.4202 35.5908 97.5726 35.8124 97.6772 36.0678C97.7819 36.3233 97.8342 36.6018 97.8342 36.9034V42H97.5387V40.5597H97.5018C97.3541 40.8797 97.1617 41.1598 96.9247 41.3999C96.6908 41.6368 96.42 41.8215 96.1122 41.9538C95.8076 42.0831 95.4767 42.1477 95.1197 42.1477ZM95.1197 41.8523C95.569 41.8523 95.9768 41.7322 96.3431 41.4922C96.7093 41.2491 97.0001 40.9121 97.2156 40.4812C97.431 40.0472 97.5387 39.544 97.5387 38.9716V37.9006C97.4526 37.9652 97.3479 38.0221 97.2248 38.0714C97.1048 38.1206 96.9678 38.1652 96.8139 38.2053C96.6631 38.2422 96.4985 38.2745 96.32 38.3022C96.1415 38.3299 95.9507 38.3561 95.7475 38.3807C95.1135 38.4545 94.615 38.5669 94.2518 38.7177C93.8886 38.8685 93.6317 39.0578 93.4809 39.2855C93.33 39.5133 93.2546 39.7779 93.2546 40.0795C93.2546 40.6151 93.4331 41.0444 93.7902 41.3675C94.1502 41.6907 94.5934 41.8523 95.1197 41.8523ZM106.718 42.1477C106.158 42.1477 105.674 41.9877 105.264 41.6676C104.855 41.3445 104.539 40.9059 104.318 40.3519C104.096 39.7979 103.985 39.1716 103.985 38.473C103.985 37.7775 104.098 37.1527 104.322 36.5987C104.547 36.0447 104.864 35.6062 105.273 35.283C105.683 34.9599 106.164 34.7983 106.718 34.7983C107.094 34.7983 107.44 34.8768 107.757 35.0337C108.074 35.1876 108.35 35.4092 108.583 35.6985C108.817 35.9847 108.996 36.3248 109.119 36.7188H109.156V32.5455H109.451V42H109.156V40.2273H109.119C108.99 40.6181 108.81 40.9582 108.579 41.2475C108.348 41.5337 108.074 41.7553 107.757 41.9123C107.443 42.0692 107.097 42.1477 106.718 42.1477ZM106.718 41.8523C107.22 41.8523 107.652 41.7045 108.016 41.4091C108.382 41.1106 108.663 40.7074 108.86 40.1996C109.057 39.6887 109.156 39.1132 109.156 38.473C109.156 37.8329 109.056 37.2589 108.856 36.7511C108.659 36.2402 108.377 35.837 108.011 35.5415C107.648 35.243 107.217 35.0938 106.718 35.0938C106.22 35.0938 105.787 35.243 105.421 35.5415C105.058 35.837 104.776 36.2402 104.576 36.7511C104.379 37.2589 104.281 37.8329 104.281 38.473C104.281 39.1132 104.379 39.6887 104.576 40.1996C104.773 40.7074 105.053 41.1106 105.417 41.4091C105.783 41.7045 106.217 41.8523 106.718 41.8523ZM121.085 34.9091L118.555 42H118.149L115.619 34.9091H115.933L118.333 41.6307H118.37L120.771 34.9091H121.085ZM127.069 42V34.9091H127.364V42H127.069ZM127.216 33.6165C127.136 33.6165 127.067 33.5872 127.009 33.5288C126.95 33.4703 126.921 33.401 126.921 33.321C126.921 33.241 126.95 33.1718 127.009 33.1133C127.067 33.0548 127.136 33.0256 127.216 33.0256C127.296 33.0256 127.366 33.0548 127.424 33.1133C127.483 33.1718 127.512 33.241 127.512 33.321C127.512 33.401 127.483 33.4703 127.424 33.5288C127.366 33.5872 127.296 33.6165 127.216 33.6165ZM138.191 36.4048L137.895 36.4787C137.8 36.1709 137.666 35.9155 137.494 35.7124C137.324 35.5062 137.117 35.3523 136.87 35.2507C136.624 35.1461 136.338 35.0938 136.012 35.0938C135.445 35.0938 134.987 35.2384 134.636 35.5277C134.285 35.8139 134.11 36.1925 134.11 36.6634C134.11 37.0357 134.228 37.3481 134.465 37.6005C134.705 37.8529 135.067 38.0391 135.55 38.1591L136.658 38.4361C137.178 38.5653 137.572 38.7839 137.84 39.0916C138.111 39.3994 138.246 39.7718 138.246 40.2088C138.246 40.5935 138.145 40.9321 137.941 41.2244C137.741 41.5168 137.464 41.7446 137.11 41.9077C136.757 42.0677 136.347 42.1477 135.882 42.1477C135.252 42.1477 134.736 41.9938 134.336 41.6861C133.936 41.3783 133.676 40.9413 133.556 40.375L133.851 40.3011C133.956 40.8028 134.179 41.1875 134.521 41.4553C134.865 41.7199 135.319 41.8523 135.882 41.8523C136.498 41.8523 136.997 41.7015 137.378 41.3999C137.76 41.0982 137.951 40.7012 137.951 40.2088C137.951 39.8426 137.837 39.5333 137.609 39.2809C137.381 39.0285 137.04 38.8454 136.584 38.7315L135.476 38.4545C134.931 38.3191 134.518 38.0975 134.234 37.7898C133.954 37.482 133.814 37.1065 133.814 36.6634C133.814 36.291 133.907 35.9663 134.091 35.6893C134.279 35.4092 134.538 35.1907 134.867 35.0337C135.199 34.8768 135.581 34.7983 136.012 34.7983C136.56 34.7983 137.017 34.9337 137.383 35.2045C137.749 35.4723 138.018 35.8724 138.191 36.4048ZM146.896 42.1477C146.339 42.1477 145.839 41.9877 145.396 41.6676C144.952 41.3445 144.602 40.9059 144.343 40.3519C144.088 39.7949 143.96 39.1686 143.96 38.473C143.96 37.7744 144.088 37.1481 144.343 36.5941C144.602 36.0401 144.952 35.6031 145.396 35.283C145.839 34.9599 146.339 34.7983 146.896 34.7983C147.453 34.7983 147.952 34.9599 148.392 35.283C148.835 35.6062 149.186 36.0447 149.444 36.5987C149.703 37.1527 149.832 37.7775 149.832 38.473C149.832 39.1686 149.703 39.7949 149.444 40.3519C149.189 40.9059 148.84 41.3445 148.396 41.6676C147.953 41.9877 147.453 42.1477 146.896 42.1477ZM146.896 41.8523C147.398 41.8523 147.847 41.7045 148.244 41.4091C148.644 41.1136 148.96 40.7105 149.19 40.1996C149.421 39.6887 149.537 39.1132 149.537 38.473C149.537 37.8329 149.42 37.2589 149.186 36.7511C148.955 36.2402 148.641 35.837 148.244 35.5415C147.847 35.243 147.398 35.0938 146.896 35.0938C146.397 35.0938 145.948 35.243 145.548 35.5415C145.151 35.837 144.836 36.2402 144.602 36.7511C144.371 37.2589 144.255 37.8329 144.255 38.473C144.255 39.1132 144.371 39.6887 144.602 40.1996C144.832 40.7105 145.146 41.1136 145.543 41.4091C145.943 41.7045 146.394 41.8523 146.896 41.8523ZM155.943 42V34.9091H156.238V36.0355H156.275C156.442 35.6662 156.714 35.3707 157.092 35.1491C157.474 34.9276 157.91 34.8168 158.399 34.8168C158.436 34.8168 158.461 34.8168 158.473 34.8168C158.485 34.8168 158.51 34.8168 158.547 34.8168V35.1122C158.51 35.1122 158.485 35.1122 158.473 35.1122C158.461 35.1122 158.436 35.1122 158.399 35.1122C157.98 35.1122 157.608 35.203 157.282 35.3846C156.959 35.5662 156.703 35.817 156.515 36.1371C156.331 36.4571 156.238 36.8234 156.238 37.2358V42H155.943ZM168.448 36.4048L168.152 36.4787C168.057 36.1709 167.923 35.9155 167.751 35.7124C167.581 35.5062 167.374 35.3523 167.127 35.2507C166.881 35.1461 166.595 35.0938 166.269 35.0938C165.702 35.0938 165.244 35.2384 164.893 35.5277C164.542 35.8139 164.367 36.1925 164.367 36.6634C164.367 37.0357 164.485 37.3481 164.722 37.6005C164.962 37.8529 165.324 38.0391 165.807 38.1591L166.915 38.4361C167.435 38.5653 167.829 38.7839 168.097 39.0916C168.368 39.3994 168.503 39.7718 168.503 40.2088C168.503 40.5935 168.402 40.9321 168.198 41.2244C167.998 41.5168 167.721 41.7446 167.367 41.9077C167.014 42.0677 166.604 42.1477 166.139 42.1477C165.509 42.1477 164.993 41.9938 164.593 41.6861C164.193 41.3783 163.933 40.9413 163.813 40.375L164.108 40.3011C164.213 40.8028 164.436 41.1875 164.778 41.4553C165.122 41.7199 165.576 41.8523 166.139 41.8523C166.755 41.8523 167.254 41.7015 167.635 41.3999C168.017 41.0982 168.208 40.7012 168.208 40.2088C168.208 39.8426 168.094 39.5333 167.866 39.2809C167.638 39.0285 167.297 38.8454 166.841 38.7315L165.733 38.4545C165.188 38.3191 164.775 38.0975 164.491 37.7898C164.211 37.482 164.071 37.1065 164.071 36.6634C164.071 36.291 164.164 35.9663 164.348 35.6893C164.536 35.4092 164.795 35.1907 165.124 35.0337C165.456 34.8768 165.838 34.7983 166.269 34.7983C166.817 34.7983 167.274 34.9337 167.64 35.2045C168.006 35.4723 168.275 35.8724 168.448 36.4048Z" fill="white"/>
<defs>
<linearGradient id="paint0_linear_73_739" x1="6.16" y1="2.84484" x2="165.881" y2="27.6666" gradientUnits="userSpaceOnUse">
<stop stop-color="#283933"/>
<stop offset="1" stop-opacity="0"/>
</linearGradient>
</defs>
</svg>
