<svg width="1920" height="282" viewBox="0 0 1920 282" fill="none" xmlns="http://www.w3.org/2000/svg">
<path d="M-55 5.80246H74.805C108.286 5.80246 134.814 14.1838 154.388 30.9465C173.962 47.7092 183.748 72.0796 183.748 104.058C183.748 136.036 173.962 160.406 154.388 177.169C134.814 193.931 108.286 202.313 74.805 202.313H36.5589V276.198H-55V5.80246ZM56.2614 133.844C79.6984 133.844 91.4169 123.915 91.4169 104.058C91.4169 84.2003 79.6984 74.2716 56.2614 74.2716H36.5589V133.844H56.2614Z" fill="#E8E7DF" fill-opacity="0.02"/>
<path d="M276.696 5.80246H363.232L471.403 276.198H377.526L360.142 229.004H279.786L262.402 276.198H168.525L276.696 5.80246ZM340.053 161.695L319.964 99.4156L299.875 161.695H340.053Z" fill="#E8E7DF" fill-opacity="0.02"/>
<path d="M506.347 5.80246H636.152C669.634 5.80246 696.161 14.1838 715.735 30.9465C735.309 47.7092 745.096 72.0796 745.096 104.058C745.096 124.173 741.104 141.322 733.12 155.506C725.136 169.432 713.803 180.392 699.123 188.387L741.619 276.198H649.287L613.745 202.313H596.361V276.198H506.347V5.80246ZM616.836 133.844C640.273 133.844 651.992 123.915 651.992 104.058C651.992 84.2003 640.273 74.2716 616.836 74.2716H596.361V133.844H616.836Z" fill="#E8E7DF" fill-opacity="0.02"/>
<path d="M821.902 82.7819H752.75V5.80246H982.613V82.7819H913.46V276.198H821.902V82.7819Z" fill="#E8E7DF" fill-opacity="0.02"/>
<path d="M1011.48 5.80246H1092.22L1172.58 131.523V5.80246H1260.27V276.198H1179.53L1099.18 150.091V276.198H1011.48V5.80246Z" fill="#E8E7DF" fill-opacity="0.02"/>
<path d="M1302.72 5.80246H1502.83V82.7819H1394.28V106.379H1471.16V175.621H1394.28V199.218H1502.83V276.198H1302.72V5.80246Z" fill="#E8E7DF" fill-opacity="0.02"/>
<path d="M1537.74 5.80246H1667.55C1701.03 5.80246 1727.56 14.1838 1747.13 30.9465C1766.7 47.7092 1776.49 72.0796 1776.49 104.058C1776.49 124.173 1772.5 141.322 1764.51 155.506C1756.53 169.432 1745.2 180.392 1730.52 188.387L1773.01 276.198H1680.68L1645.14 202.313H1627.76V276.198H1537.74V5.80246ZM1648.23 133.844C1671.67 133.844 1683.39 123.915 1683.39 104.058C1683.39 84.2003 1671.67 74.2716 1648.23 74.2716H1627.76V133.844H1648.23Z" fill="#E8E7DF" fill-opacity="0.02"/>
<path d="M1901.26 282C1883.49 282 1865.59 280.195 1847.56 276.584C1829.53 272.974 1814.85 268.074 1803.52 261.885V182.198C1817.94 190.45 1833.14 196.639 1849.11 200.765C1865.33 204.892 1880.27 206.955 1893.92 206.955C1901.65 206.955 1907.19 206.181 1910.53 204.634C1913.88 203.086 1915.56 200.637 1915.56 197.284C1915.56 192.642 1912.98 188.774 1907.83 185.679C1902.68 182.326 1891.73 176.911 1874.99 169.432C1850.27 158.601 1832.24 146.609 1820.91 133.457C1809.83 120.047 1804.29 103.8 1804.29 84.7161C1804.29 68.2113 1808.8 53.6406 1817.82 41.0041C1827.09 28.1097 1839.96 18.0521 1856.45 10.8313C1873.19 3.61042 1892.25 0 1913.62 0C1931.14 0 1946.72 1.41839 1960.37 4.25516C1974.02 7.09192 1987.03 11.476 1999.39 17.4074V94.3868C1976.21 81.4925 1953.29 75.0453 1930.62 75.0453C1912.34 75.0453 1903.19 79.0425 1903.19 87.037C1903.19 90.9054 1905.25 94.129 1909.37 96.7078C1913.75 99.2867 1921.48 102.768 1932.55 107.152L1946.85 112.955C1965.13 120.691 1979.17 128.428 1988.96 136.165C1998.74 143.643 2005.7 152.283 2009.82 162.082C2013.94 171.624 2016 183.745 2016 198.444C2016 224.491 2006.47 244.993 1987.41 259.951C1968.35 274.65 1939.64 282 1901.26 282Z" fill="#E8E7DF" fill-opacity="0.02"/>
</svg>
